<svg xmlns="http://www.w3.org/2000/svg" viewBox="0 0 640 512"><!--!Font Awesome Free 6.7.2 by @fontawesome - https://fontawesome.com License - https://fontawesome.com/license/free Copyright 2024 Fonticons, Inc.--><path fill="#1e1f26" d="M544 192h-16L419.2 56A64 64 0 0 0 369.2 32H155.3c-26.2 0-49.7 15.9-59.4 40.2L48 194.3C20.4 201.4 0 226.2 0 256v112c0 8.8 7.2 16 16 16h48c0 53 43 96 96 96s96-43 96-96h128c0 53 43 96 96 96s96-43 96-96h48c8.8 0 16-7.2 16-16v-80c0-53-43-96-96-96zM160 432c-26.5 0-48-21.5-48-48s21.5-48 48-48 48 21.5 48 48-21.5 48-48 48zm72-240H116.9l38.4-96H232v96zm48 0V96h89.2l76.8 96H280zm200 240c-26.5 0-48-21.5-48-48s21.5-48 48-48 48 21.5 48 48-21.5 48-48 48z"/></svg>